# xmcd CD database file
#
# Track frame offsets:
#	151
#	34940
#	59099
#	83772
#	102419
#	134604
#	153769
#	171676
#
# Disc length: 2736 seconds
#
# Revision: 0
# Processed by: cddbd v1.5.1PL0 Copyright (c) Steve Scherf et al.
# Submitted via: CDex 1.51
#
DISCID=700aae08
DTITLE=Jacin Nagao - Jacin Nagao
DYEAR=2001
DGENRE=Jazz
TTITLE0=The Crusher
TTITLE1=I Mean You
TTITLE2=Turning Leaf
TTITLE3=Checkin' Oil
TTITLE4=Fantasy trip
TTITLE5=Solitude
TTITLE6=Ben's Bop
TTITLE7=Outmood
EXTD=YEAR: 2001
EXTT0=
EXTT1=
EXTT2=
EXTT3=
EXTT4=
EXTT5=
EXTT6=
EXTT7=
PLAYORDER=
